<?xml version="1.0" encoding="UTF-8" standalone="no"?>
<!DOCTYPE svg PUBLIC "-//W3C//DTD SVG 1.1//EN"
 "http://www.w3.org/Graphics/SVG/1.1/DTD/svg11.dtd">
<!-- Generated by graphviz version 2.40.1 (20161225.0304)
 -->
<!-- Title: %3 Pages: 1 -->
<svg width="1882pt" height="696pt"
 viewBox="0.00 0.00 1882.42 696.00" xmlns="http://www.w3.org/2000/svg" xmlns:xlink="http://www.w3.org/1999/xlink">
<g id="graph0" class="graph" transform="scale(1 1) rotate(0) translate(4 692)">
<title>%3</title>
<polygon fill="#ffffff" stroke="transparent" points="-4,4 -4,-692 1878.4223,-692 1878.4223,4 -4,4"/>
<g id="clust1" class="cluster">
<title>cluster&#45;nid&#45;20</title>
<polygon fill="none" stroke="#cccccc" points="8,-15 8,-81 157.146,-81 157.146,-15 8,-15"/>
</g>
<g id="clust2" class="cluster">
<title>cluster&#45;nid&#45;21&#45;in</title>
<polygon fill="none" stroke="#cccccc" points="357.146,-8 357.146,-88 522.1118,-88 522.1118,-8 357.146,-8"/>
</g>
<g id="clust4" class="cluster">
<title>cluster&#45;nid&#45;22&#45;in</title>
<polygon fill="none" stroke="#cccccc" points="731.8223,-424 731.8223,-504 896.7881,-504 896.7881,-424 731.8223,-424"/>
</g>
<g id="clust6" class="cluster">
<title>cluster&#45;nid&#45;10</title>
<polygon fill="none" stroke="#cccccc" points="20.094,-170 20.094,-236 474.6289,-236 474.6289,-170 20.094,-170"/>
</g>
<g id="clust7" class="cluster">
<title>cluster&#45;nid&#45;11</title>
<polygon fill="none" stroke="#cccccc" points="20.094,-96 20.094,-162 474.6289,-162 474.6289,-96 20.094,-96"/>
</g>
<g id="clust9" class="cluster">
<title>cluster&#45;nid&#45;13</title>
<polygon fill="none" stroke="#cccccc" points="1471.4644,-343 1471.4644,-409 1866.4223,-409 1866.4223,-343 1471.4644,-343"/>
</g>
<g id="clust10" class="cluster">
<title>cluster&#45;nid&#45;14</title>
<polygon fill="none" stroke="#cccccc" points="1471.4644,-167 1471.4644,-233 1866.4223,-233 1866.4223,-167 1471.4644,-167"/>
</g>
<g id="clust11" class="cluster">
<title>cluster&#45;nid&#45;15</title>
<polygon fill="none" stroke="#cccccc" points="779.3052,-100 779.3052,-152 1223.9814,-152 1223.9814,-100 779.3052,-100"/>
</g>
<g id="clust12" class="cluster">
<title>cluster&#45;nid&#45;16&#45;in</title>
<polygon fill="none" stroke="#cccccc" points="722.9321,-12 722.9321,-92 905.6782,-92 905.6782,-12 722.9321,-12"/>
</g>
<g id="clust14" class="cluster">
<title>cluster&#45;nid&#45;17&#45;in</title>
<polygon fill="none" stroke="#cccccc" points="722.1118,-248 722.1118,-328 906.4985,-328 906.4985,-248 722.1118,-248"/>
</g>
<g id="clust17" class="cluster">
<title>cluster&#45;nid&#45;18&#45;out</title>
<polygon fill="none" stroke="#cccccc" points="1106.4985,-512 1106.4985,-592 1271.4644,-592 1271.4644,-512 1106.4985,-512"/>
</g>
<g id="clust19" class="cluster">
<title>cluster&#45;nid&#45;19&#45;out</title>
<polygon fill="none" stroke="#cccccc" points="1107.2744,-424 1107.2744,-504 1270.6885,-504 1270.6885,-424 1107.2744,-424"/>
</g>
<g id="clust21" class="cluster">
<title>cluster&#45;nid&#45;1a&#45;out</title>
<polygon fill="none" stroke="#cccccc" points="1110.6069,-160 1110.6069,-240 1267.356,-240 1267.356,-160 1110.6069,-160"/>
</g>
<g id="clust24" class="cluster">
<title>cluster&#45;nid&#45;1d&#45;in</title>
<polygon fill="none" stroke="#cccccc" points="731.8223,-160 731.8223,-240 896.7881,-240 896.7881,-160 731.8223,-160"/>
</g>
<g id="clust25" class="cluster">
<title>cluster&#45;nid&#45;1d&#45;out</title>
<polygon fill="none" stroke="#cccccc" points="779.3052,-336 779.3052,-416 1271.4644,-416 1271.4644,-336 779.3052,-336"/>
</g>
<g id="clust27" class="cluster">
<title>cluster&#45;nid&#45;1e&#45;out</title>
<polygon fill="none" stroke="#cccccc" points="1106.4985,-600 1106.4985,-680 1271.4644,-680 1271.4644,-600 1106.4985,-600"/>
</g>
<g id="clust29" class="cluster">
<title>cluster&#45;nid&#45;1f&#45;out</title>
<polygon fill="none" stroke="#cccccc" points="1106.4985,-248 1106.4985,-328 1271.4644,-328 1271.4644,-248 1106.4985,-248"/>
</g>
<!-- nid&#45;20 -->
<g id="node1" class="node">
<title>nid&#45;20</title>
<ellipse fill="none" stroke="#0000ff" cx="82.573" cy="-48" rx="66.6461" ry="25.4118"/>
<text text-anchor="middle" x="82.573" y="-50.8" font-family="Times,serif" font-size="14.00" fill="#000000">0x20</text>
<text text-anchor="middle" x="82.573" y="-36.8" font-family="Times,serif" font-size="14.00" fill="#000000">Stereo Digital</text>
</g>
<!-- nid&#45;21&#45;in -->
<g id="node2" class="node">
<title>nid&#45;21&#45;in</title>
<polygon fill="none" stroke="#00ff00" points="514.0947,-80 365.1631,-80 365.1631,-16 514.0947,-16 514.0947,-80"/>
<text text-anchor="middle" x="439.6289" y="-64.8" font-family="Times,serif" font-size="14.00" fill="#000000">0x21</text>
<text text-anchor="middle" x="439.6289" y="-50.8" font-family="Times,serif" font-size="14.00" fill="#000000">[N/A] Other at Ext N/A</text>
<text text-anchor="middle" x="439.6289" y="-36.8" font-family="Times,serif" font-size="14.00" fill="#000000">Stereo Digital</text>
<text text-anchor="middle" x="439.6289" y="-22.8" font-family="Times,serif" font-size="14.00" fill="#000000">OUT</text>
</g>
<!-- nid&#45;20&#45;&gt;nid&#45;21&#45;in -->
<g id="edge1" class="edge">
<title>nid&#45;20&#45;&gt;nid&#45;21&#45;in</title>
<path fill="none" stroke="#333333" d="M149.3136,-48C207.3432,-48 291.7398,-48 354.5958,-48"/>
<polygon fill="#333333" stroke="#333333" points="354.8849,-51.5001 364.8849,-48 354.8849,-44.5001 354.8849,-51.5001"/>
</g>
<!-- nid&#45;22&#45;in -->
<g id="node3" class="node">
<title>nid&#45;22&#45;in</title>
<polygon fill="none" stroke="#00ff00" points="888.771,-496 739.8394,-496 739.8394,-432 888.771,-432 888.771,-496"/>
<text text-anchor="middle" x="814.3052" y="-480.8" font-family="Times,serif" font-size="14.00" fill="#000000">0x22</text>
<text text-anchor="middle" x="814.3052" y="-466.8" font-family="Times,serif" font-size="14.00" fill="#000000">[N/A] Other at Ext N/A</text>
<text text-anchor="middle" x="814.3052" y="-452.8" font-family="Times,serif" font-size="14.00" fill="#000000">Stereo</text>
<text text-anchor="middle" x="814.3052" y="-438.8" font-family="Times,serif" font-size="14.00" fill="#000000">OUT EAPD</text>
</g>
<!-- nid&#45;10&#45;ampout -->
<g id="node4" class="node">
<title>nid&#45;10&#45;ampout</title>
<polygon fill="none" stroke="#c8c8c8" points="466.6289,-203 426.1289,-221 426.1289,-185 466.6289,-203"/>
</g>
<!-- nid&#45;10&#45;ampout&#45;&gt;nid&#45;22&#45;in -->
<g id="edge2" class="edge">
<title>nid&#45;10&#45;ampout&#45;&gt;nid&#45;22&#45;in</title>
<path fill="none" stroke="#333333" d="M448.8571,-211.2653C483.1494,-241.7152 607.1898,-349.5147 722.1118,-420 725.9575,-422.3587 729.9492,-424.6831 734.0199,-426.9566"/>
<polygon fill="#333333" stroke="#333333" points="732.573,-430.1535 743.0317,-431.8464 735.9115,-424.0009 732.573,-430.1535"/>
</g>
<!-- nid&#45;15&#45;ampin -->
<g id="node19" class="node">
<title>nid&#45;15&#45;ampin</title>
<polygon fill="none" stroke="#0000ff" points="841.3052,-126 800.8052,-144 800.8052,-108 841.3052,-126"/>
</g>
<!-- nid&#45;10&#45;ampout&#45;&gt;nid&#45;15&#45;ampin -->
<g id="edge19" class="edge">
<title>nid&#45;10&#45;ampout&#45;&gt;nid&#45;15&#45;ampin</title>
<path fill="none" stroke="#333333" d="M458.2092,-199.1816C520.4409,-186.3923 721.5029,-145.0719 790.6719,-130.8569"/>
<polygon fill="#333333" stroke="#333333" points="791.5086,-134.2582 800.5993,-128.8167 790.0994,-127.4015 791.5086,-134.2582"/>
</g>
<!-- nid&#45;16&#45;in -->
<g id="node20" class="node">
<title>nid&#45;16&#45;in</title>
<polygon fill="none" stroke="#00ff00" points="897.5515,-84 731.0589,-84 731.0589,-20 897.5515,-20 897.5515,-84"/>
<text text-anchor="middle" x="814.3052" y="-68.8" font-family="Times,serif" font-size="14.00" fill="#000000">0x16</text>
<text text-anchor="middle" x="814.3052" y="-54.8" font-family="Times,serif" font-size="14.00" fill="#000000">[Jack] HP Out at Ext Right</text>
<text text-anchor="middle" x="814.3052" y="-40.8" font-family="Times,serif" font-size="14.00" fill="#000000">Stereo</text>
<text text-anchor="middle" x="814.3052" y="-26.8" font-family="Times,serif" font-size="14.00" fill="#000000">OUT HP EAPD Detect</text>
</g>
<!-- nid&#45;10&#45;ampout&#45;&gt;nid&#45;16&#45;in -->
<g id="edge21" class="edge">
<title>nid&#45;10&#45;ampout&#45;&gt;nid&#45;16&#45;in</title>
<path fill="none" stroke="#333333" d="M453.8591,-197.265C497.7334,-179.5831 633.4872,-124.8723 725.2873,-87.8755"/>
<polygon fill="#333333" stroke="#333333" points="726.6177,-91.1129 734.5845,-84.1286 724.0011,-84.6204 726.6177,-91.1129"/>
</g>
<!-- nid&#45;17&#45;in -->
<g id="node21" class="node">
<title>nid&#45;17&#45;in</title>
<polygon fill="none" stroke="#00ff00" points="898.6923,-320 729.918,-320 729.918,-256 898.6923,-256 898.6923,-320"/>
<text text-anchor="middle" x="814.3052" y="-304.8" font-family="Times,serif" font-size="14.00" fill="#000000">0x17</text>
<text text-anchor="middle" x="814.3052" y="-290.8" font-family="Times,serif" font-size="14.00" fill="#000000">[Fixed] Speaker at Int Rear</text>
<text text-anchor="middle" x="814.3052" y="-276.8" font-family="Times,serif" font-size="14.00" fill="#000000">Stereo</text>
<text text-anchor="middle" x="814.3052" y="-262.8" font-family="Times,serif" font-size="14.00" fill="#000000">OUT EAPD</text>
</g>
<!-- nid&#45;10&#45;ampout&#45;&gt;nid&#45;17&#45;in -->
<g id="edge23" class="edge">
<title>nid&#45;10&#45;ampout&#45;&gt;nid&#45;17&#45;in</title>
<path fill="none" stroke="#c0c0c0" stroke-dasharray="5,2" d="M457.7003,-207.0997C504.2664,-217.6638 630.9334,-246.3998 720.0001,-266.6057"/>
<polygon fill="#c0c0c0" stroke="#c0c0c0" points="719.3254,-270.0415 729.8519,-268.8407 720.8741,-263.215 719.3254,-270.0415"/>
</g>
<!-- nid&#45;1d&#45;in -->
<g id="node22" class="node">
<title>nid&#45;1d&#45;in</title>
<polygon fill="none" stroke="#00ff00" points="888.771,-232 739.8394,-232 739.8394,-168 888.771,-168 888.771,-232"/>
<text text-anchor="middle" x="814.3052" y="-216.8" font-family="Times,serif" font-size="14.00" fill="#000000">0x1d</text>
<text text-anchor="middle" x="814.3052" y="-202.8" font-family="Times,serif" font-size="14.00" fill="#000000">[N/A] Other at Ext N/A</text>
<text text-anchor="middle" x="814.3052" y="-188.8" font-family="Times,serif" font-size="14.00" fill="#000000">Stereo</text>
<text text-anchor="middle" x="814.3052" y="-174.8" font-family="Times,serif" font-size="14.00" fill="#000000">IN OUT EAPD Detect</text>
</g>
<!-- nid&#45;10&#45;ampout&#45;&gt;nid&#45;1d&#45;in -->
<g id="edge26" class="edge">
<title>nid&#45;10&#45;ampout&#45;&gt;nid&#45;1d&#45;in</title>
<path fill="none" stroke="#333333" d="M466.2743,-202.7867C520.3342,-202.3538 644.9262,-201.3562 729.3984,-200.6798"/>
<polygon fill="#333333" stroke="#333333" points="729.522,-204.1791 739.4936,-200.599 729.4658,-197.1793 729.522,-204.1791"/>
</g>
<!-- nid&#45;11&#45;ampout -->
<g id="node5" class="node">
<title>nid&#45;11&#45;ampout</title>
<polygon fill="none" stroke="#0000ff" points="466.6289,-129 426.1289,-147 426.1289,-111 466.6289,-129"/>
</g>
<!-- nid&#45;11&#45;ampout&#45;&gt;nid&#45;22&#45;in -->
<g id="edge3" class="edge">
<title>nid&#45;11&#45;ampout&#45;&gt;nid&#45;22&#45;in</title>
<path fill="none" stroke="#c0c0c0" stroke-dasharray="5,2" d="M456.0687,-133.7652C473.6768,-139.4326 501.8211,-150.1634 522.1118,-166 635.3805,-254.4045 609.895,-330.2641 722.1118,-420 724.9816,-422.2949 727.9907,-424.5065 731.0979,-426.6333"/>
<polygon fill="#c0c0c0" stroke="#c0c0c0" points="729.2217,-429.588 739.5232,-432.0639 733.0141,-423.7043 729.2217,-429.588"/>
</g>
<!-- nid&#45;11&#45;ampout&#45;&gt;nid&#45;15&#45;ampin -->
<g id="edge20" class="edge">
<title>nid&#45;11&#45;ampout&#45;&gt;nid&#45;15&#45;ampin</title>
<path fill="none" stroke="#c0c0c0" stroke-dasharray="5,2" d="M466.2743,-128.7867C536.1285,-128.2273 723.7493,-126.7251 790.4041,-126.1914"/>
<polygon fill="#c0c0c0" stroke="#c0c0c0" points="790.7399,-129.6889 800.7116,-126.1088 790.6838,-122.6891 790.7399,-129.6889"/>
</g>
<!-- nid&#45;11&#45;ampout&#45;&gt;nid&#45;16&#45;in -->
<g id="edge22" class="edge">
<title>nid&#45;11&#45;ampout&#45;&gt;nid&#45;16&#45;in</title>
<path fill="none" stroke="#c0c0c0" stroke-dasharray="5,2" d="M458.2092,-125.1816C505.3898,-115.4854 632.3675,-89.3902 721.17,-71.1403"/>
<polygon fill="#c0c0c0" stroke="#c0c0c0" points="721.899,-74.5637 730.9897,-69.1222 720.4898,-67.707 721.899,-74.5637"/>
</g>
<!-- nid&#45;11&#45;ampout&#45;&gt;nid&#45;17&#45;in -->
<g id="edge24" class="edge">
<title>nid&#45;11&#45;ampout&#45;&gt;nid&#45;17&#45;in</title>
<path fill="none" stroke="#333333" d="M453.8591,-135.0388C498.3795,-153.9318 637.5058,-212.9723 729.3143,-251.9327"/>
<polygon fill="#333333" stroke="#333333" points="728.0274,-255.1887 738.6001,-255.8733 730.762,-248.7449 728.0274,-255.1887"/>
</g>
<!-- nid&#45;11&#45;ampout&#45;&gt;nid&#45;1d&#45;in -->
<g id="edge27" class="edge">
<title>nid&#45;11&#45;ampout&#45;&gt;nid&#45;1d&#45;in</title>
<path fill="none" stroke="#c0c0c0" stroke-dasharray="5,2" d="M458.7243,-132.6185C507.8322,-141.9243 640.8669,-167.134 729.5531,-183.9397"/>
<polygon fill="#c0c0c0" stroke="#c0c0c0" points="729.1251,-187.4208 739.6019,-185.844 730.4284,-180.5432 729.1251,-187.4208"/>
</g>
<!-- nid&#45;10 -->
<g id="node6" class="node">
<title>nid&#45;10</title>
<ellipse fill="none" stroke="#0000ff" cx="82.573" cy="-203" rx="54.458" ry="25.4118"/>
<text text-anchor="middle" x="82.573" y="-205.8" font-family="Times,serif" font-size="14.00" fill="#000000">0x10</text>
<text text-anchor="middle" x="82.573" y="-191.8" font-family="Times,serif" font-size="14.00" fill="#000000">Stereo R/L</text>
</g>
<!-- nid&#45;10&#45;&gt;nid&#45;10&#45;ampout -->
<g id="edge4" class="edge">
<title>nid&#45;10&#45;&gt;nid&#45;10&#45;ampout</title>
<path fill="none" stroke="#c8c8c8" d="M137.1908,-203C218.7822,-203 368.5091,-203 420.9177,-203"/>
<polygon fill="#c8c8c8" stroke="#c8c8c8" points="420.9663,-204.7501 425.9663,-203 420.9662,-201.2501 420.9663,-204.7501"/>
</g>
<!-- nid&#45;11 -->
<g id="node7" class="node">
<title>nid&#45;11</title>
<ellipse fill="none" stroke="#0000ff" cx="82.573" cy="-129" rx="54.458" ry="25.4118"/>
<text text-anchor="middle" x="82.573" y="-131.8" font-family="Times,serif" font-size="14.00" fill="#000000">0x11</text>
<text text-anchor="middle" x="82.573" y="-117.8" font-family="Times,serif" font-size="14.00" fill="#000000">Stereo R/L</text>
</g>
<!-- nid&#45;11&#45;&gt;nid&#45;11&#45;ampout -->
<g id="edge5" class="edge">
<title>nid&#45;11&#45;&gt;nid&#45;11&#45;ampout</title>
<path fill="none" stroke="#0000ff" d="M137.1908,-129C218.7822,-129 368.5091,-129 420.9177,-129"/>
<polygon fill="#0000ff" stroke="#0000ff" points="420.9663,-130.7501 425.9663,-129 420.9662,-127.2501 420.9663,-130.7501"/>
</g>
<!-- nid&#45;13 -->
<g id="node8" class="node">
<title>nid&#45;13</title>
<ellipse fill="none" stroke="#ff0000" cx="1803.9433" cy="-376" rx="54.458" ry="25.4118"/>
<text text-anchor="middle" x="1803.9433" y="-378.8" font-family="Times,serif" font-size="14.00" fill="#000000">0x13</text>
<text text-anchor="middle" x="1803.9433" y="-364.8" font-family="Times,serif" font-size="14.00" fill="#000000">Stereo R/L</text>
</g>
<!-- nid&#45;13&#45;ampin -->
<g id="node9" class="node">
<title>nid&#45;13&#45;ampin</title>
<polygon fill="none" stroke="#c8c8c8" points="1533.4644,-376 1492.9644,-394 1492.9644,-358 1533.4644,-376"/>
</g>
<!-- nid&#45;13&#45;ampin&#45;&gt;nid&#45;13 -->
<g id="edge6" class="edge">
<title>nid&#45;13&#45;ampin&#45;&gt;nid&#45;13</title>
<path fill="none" stroke="#c8c8c8" d="M1533.6522,-376C1581.085,-376 1680.0071,-376 1744.1156,-376"/>
<polygon fill="#c8c8c8" stroke="#c8c8c8" points="1744.4379,-377.7501 1749.4379,-376 1744.4379,-374.2501 1744.4379,-377.7501"/>
</g>
<!-- nid&#45;18&#45;out -->
<g id="node10" class="node">
<title>nid&#45;18&#45;out</title>
<polygon fill="none" stroke="#00ff00" points="1263.4473,-584 1114.5156,-584 1114.5156,-520 1263.4473,-520 1263.4473,-584"/>
<text text-anchor="middle" x="1188.9814" y="-568.8" font-family="Times,serif" font-size="14.00" fill="#000000">0x18</text>
<text text-anchor="middle" x="1188.9814" y="-554.8" font-family="Times,serif" font-size="14.00" fill="#000000">[N/A] Other at Ext N/A</text>
<text text-anchor="middle" x="1188.9814" y="-540.8" font-family="Times,serif" font-size="14.00" fill="#000000">Stereo</text>
<text text-anchor="middle" x="1188.9814" y="-526.8" font-family="Times,serif" font-size="14.00" fill="#000000">IN Detect</text>
</g>
<!-- nid&#45;18&#45;out&#45;&gt;nid&#45;13&#45;ampin -->
<g id="edge7" class="edge">
<title>nid&#45;18&#45;out&#45;&gt;nid&#45;13&#45;ampin</title>
<path fill="none" stroke="#c0c0c0" stroke-dasharray="5,2" d="M1249.4268,-519.95C1256.8623,-515.9503 1264.3463,-511.897 1271.4644,-508 1349.9074,-465.0533 1442.1986,-412.6634 1483.9441,-388.8645"/>
<polygon fill="#c0c0c0" stroke="#c0c0c0" points="1485.7973,-391.8369 1492.7489,-383.8415 1482.3286,-385.7567 1485.7973,-391.8369"/>
</g>
<!-- nid&#45;19&#45;out -->
<g id="node11" class="node">
<title>nid&#45;19&#45;out</title>
<polygon fill="none" stroke="#00ff00" points="1262.8961,-496 1115.0668,-496 1115.0668,-432 1262.8961,-432 1262.8961,-496"/>
<text text-anchor="middle" x="1188.9814" y="-480.8" font-family="Times,serif" font-size="14.00" fill="#000000">0x19</text>
<text text-anchor="middle" x="1188.9814" y="-466.8" font-family="Times,serif" font-size="14.00" fill="#000000">[Jack] Mic at Ext Right</text>
<text text-anchor="middle" x="1188.9814" y="-452.8" font-family="Times,serif" font-size="14.00" fill="#000000">Stereo</text>
<text text-anchor="middle" x="1188.9814" y="-438.8" font-family="Times,serif" font-size="14.00" fill="#000000">IN Detect</text>
</g>
<!-- nid&#45;19&#45;out&#45;&gt;nid&#45;13&#45;ampin -->
<g id="edge8" class="edge">
<title>nid&#45;19&#45;out&#45;&gt;nid&#45;13&#45;ampin</title>
<path fill="none" stroke="#c0c0c0" stroke-dasharray="5,2" d="M1263.0164,-443.479C1334.0917,-423.7783 1437.2075,-395.1966 1483.018,-382.4989"/>
<polygon fill="#c0c0c0" stroke="#c0c0c0" points="1484.1831,-385.808 1492.8848,-379.764 1482.3133,-379.0623 1484.1831,-385.808"/>
</g>
<!-- nid&#45;1a&#45;out -->
<g id="node12" class="node">
<title>nid&#45;1a&#45;out</title>
<polygon fill="none" stroke="#00ff00" points="1259.2307,-232 1118.7322,-232 1118.7322,-168 1259.2307,-168 1259.2307,-232"/>
<text text-anchor="middle" x="1188.9814" y="-216.8" font-family="Times,serif" font-size="14.00" fill="#000000">0x1a</text>
<text text-anchor="middle" x="1188.9814" y="-202.8" font-family="Times,serif" font-size="14.00" fill="#000000">[Fixed] Mic at Int Top</text>
<text text-anchor="middle" x="1188.9814" y="-188.8" font-family="Times,serif" font-size="14.00" fill="#000000">Stereo</text>
<text text-anchor="middle" x="1188.9814" y="-174.8" font-family="Times,serif" font-size="14.00" fill="#000000">IN</text>
</g>
<!-- nid&#45;1a&#45;out&#45;&gt;nid&#45;13&#45;ampin -->
<g id="edge9" class="edge">
<title>nid&#45;1a&#45;out&#45;&gt;nid&#45;13&#45;ampin</title>
<path fill="none" stroke="#333333" d="M1249.4268,-232.05C1256.8623,-236.0497 1264.3463,-240.103 1271.4644,-244 1349.9074,-286.9467 1442.1986,-339.3366 1483.9441,-363.1355"/>
<polygon fill="#333333" stroke="#333333" points="1482.3286,-366.2433 1492.7489,-368.1585 1485.7973,-360.1631 1482.3286,-366.2433"/>
</g>
<!-- nid&#45;14&#45;ampin -->
<g id="node18" class="node">
<title>nid&#45;14&#45;ampin</title>
<polygon fill="none" stroke="#0000ff" points="1533.4644,-200 1492.9644,-218 1492.9644,-182 1533.4644,-200"/>
</g>
<!-- nid&#45;1a&#45;out&#45;&gt;nid&#45;14&#45;ampin -->
<g id="edge15" class="edge">
<title>nid&#45;1a&#45;out&#45;&gt;nid&#45;14&#45;ampin</title>
<path fill="none" stroke="#333333" d="M1259.4412,-200C1330.473,-200 1436.0841,-200 1482.7869,-200"/>
<polygon fill="#333333" stroke="#333333" points="1482.8353,-203.5001 1492.8352,-200 1482.8352,-196.5001 1482.8353,-203.5001"/>
</g>
<!-- nid&#45;15 -->
<g id="node13" class="node">
<title>nid&#45;15</title>
<polygon fill="none" stroke="#000000" points="1215.9814,-144 1161.9814,-144 1161.9814,-108 1215.9814,-108 1215.9814,-144"/>
<text text-anchor="middle" x="1188.9814" y="-128.8" font-family="Times,serif" font-size="14.00" fill="#000000">0x15</text>
<text text-anchor="middle" x="1188.9814" y="-114.8" font-family="Times,serif" font-size="14.00" fill="#000000">Stereo</text>
</g>
<!-- nid&#45;15&#45;&gt;nid&#45;13&#45;ampin -->
<g id="edge10" class="edge">
<title>nid&#45;15&#45;&gt;nid&#45;13&#45;ampin</title>
<path fill="none" stroke="#c0c0c0" stroke-dasharray="5,2" d="M1216.2257,-132.8896C1232.9296,-137.8286 1254.3236,-145.4758 1271.4644,-156 1362.4807,-211.8828 1448.5672,-306.9315 1486.3635,-351.5291"/>
<polygon fill="#c0c0c0" stroke="#c0c0c0" points="1483.7367,-353.8436 1492.8492,-359.2486 1489.0962,-349.3407 1483.7367,-353.8436"/>
</g>
<!-- nid&#45;15&#45;&gt;nid&#45;14&#45;ampin -->
<g id="edge16" class="edge">
<title>nid&#45;15&#45;&gt;nid&#45;14&#45;ampin</title>
<path fill="none" stroke="#c0c0c0" stroke-dasharray="5,2" d="M1216.0499,-132.3092C1277.1893,-146.5598 1425.1194,-181.0398 1482.8402,-194.4936"/>
<polygon fill="#c0c0c0" stroke="#c0c0c0" points="1482.2954,-197.9604 1492.8289,-196.8218 1483.8844,-191.1431 1482.2954,-197.9604"/>
</g>
<!-- nid&#45;1d&#45;out -->
<g id="node14" class="node">
<title>nid&#45;1d&#45;out</title>
<polygon fill="none" stroke="#00ff00" points="1263.4473,-408 1114.5156,-408 1114.5156,-344 1263.4473,-344 1263.4473,-408"/>
<text text-anchor="middle" x="1188.9814" y="-392.8" font-family="Times,serif" font-size="14.00" fill="#000000">0x1d</text>
<text text-anchor="middle" x="1188.9814" y="-378.8" font-family="Times,serif" font-size="14.00" fill="#000000">[N/A] Other at Ext N/A</text>
<text text-anchor="middle" x="1188.9814" y="-364.8" font-family="Times,serif" font-size="14.00" fill="#000000">Stereo</text>
<text text-anchor="middle" x="1188.9814" y="-350.8" font-family="Times,serif" font-size="14.00" fill="#000000">IN OUT EAPD Detect</text>
</g>
<!-- nid&#45;1d&#45;out&#45;&gt;nid&#45;13&#45;ampin -->
<g id="edge11" class="edge">
<title>nid&#45;1d&#45;out&#45;&gt;nid&#45;13&#45;ampin</title>
<path fill="none" stroke="#c0c0c0" stroke-dasharray="5,2" d="M1263.8184,-376C1334.7802,-376 1437.1339,-376 1482.8538,-376"/>
<polygon fill="#c0c0c0" stroke="#c0c0c0" points="1482.9585,-379.5001 1492.9585,-376 1482.9585,-372.5001 1482.9585,-379.5001"/>
</g>
<!-- nid&#45;1e&#45;out -->
<g id="node15" class="node">
<title>nid&#45;1e&#45;out</title>
<polygon fill="none" stroke="#00ff00" points="1263.4473,-672 1114.5156,-672 1114.5156,-608 1263.4473,-608 1263.4473,-672"/>
<text text-anchor="middle" x="1188.9814" y="-656.8" font-family="Times,serif" font-size="14.00" fill="#000000">0x1e</text>
<text text-anchor="middle" x="1188.9814" y="-642.8" font-family="Times,serif" font-size="14.00" fill="#000000">[N/A] Other at Ext N/A</text>
<text text-anchor="middle" x="1188.9814" y="-628.8" font-family="Times,serif" font-size="14.00" fill="#000000">Stereo</text>
<text text-anchor="middle" x="1188.9814" y="-614.8" font-family="Times,serif" font-size="14.00" fill="#000000">IN Detect</text>
</g>
<!-- nid&#45;1e&#45;out&#45;&gt;nid&#45;13&#45;ampin -->
<g id="edge12" class="edge">
<title>nid&#45;1e&#45;out&#45;&gt;nid&#45;13&#45;ampin</title>
<path fill="none" stroke="#c0c0c0" stroke-dasharray="5,2" d="M1253.4789,-607.7433C1259.6938,-604.0009 1265.7894,-600.062 1271.4644,-596 1358.5584,-533.6591 1446.9545,-441.3611 1485.8919,-398.8978"/>
<polygon fill="#c0c0c0" stroke="#c0c0c0" points="1488.6403,-401.0782 1492.7905,-391.33 1483.4671,-396.3625 1488.6403,-401.0782"/>
</g>
<!-- nid&#45;1f&#45;out -->
<g id="node16" class="node">
<title>nid&#45;1f&#45;out</title>
<polygon fill="none" stroke="#00ff00" points="1263.4473,-320 1114.5156,-320 1114.5156,-256 1263.4473,-256 1263.4473,-320"/>
<text text-anchor="middle" x="1188.9814" y="-304.8" font-family="Times,serif" font-size="14.00" fill="#000000">0x1f</text>
<text text-anchor="middle" x="1188.9814" y="-290.8" font-family="Times,serif" font-size="14.00" fill="#000000">[N/A] Other at Ext N/A</text>
<text text-anchor="middle" x="1188.9814" y="-276.8" font-family="Times,serif" font-size="14.00" fill="#000000">Stereo</text>
<text text-anchor="middle" x="1188.9814" y="-262.8" font-family="Times,serif" font-size="14.00" fill="#000000">IN</text>
</g>
<!-- nid&#45;1f&#45;out&#45;&gt;nid&#45;13&#45;ampin -->
<g id="edge13" class="edge">
<title>nid&#45;1f&#45;out&#45;&gt;nid&#45;13&#45;ampin</title>
<path fill="none" stroke="#c0c0c0" stroke-dasharray="5,2" d="M1263.8184,-308.7433C1334.9302,-328.4541 1437.5668,-356.903 1483.143,-369.5358"/>
<polygon fill="#c0c0c0" stroke="#c0c0c0" points="1482.3869,-372.9581 1492.9585,-372.2564 1484.2568,-366.2124 1482.3869,-372.9581"/>
</g>
<!-- nid&#45;1f&#45;out&#45;&gt;nid&#45;14&#45;ampin -->
<g id="edge17" class="edge">
<title>nid&#45;1f&#45;out&#45;&gt;nid&#45;14&#45;ampin</title>
<path fill="none" stroke="#c0c0c0" stroke-dasharray="5,2" d="M1263.8184,-267.2567C1334.9302,-247.5459 1437.5668,-219.097 1483.143,-206.4642"/>
<polygon fill="#c0c0c0" stroke="#c0c0c0" points="1484.2568,-209.7876 1492.9585,-203.7436 1482.3869,-203.0419 1484.2568,-209.7876"/>
</g>
<!-- nid&#45;14 -->
<g id="node17" class="node">
<title>nid&#45;14</title>
<ellipse fill="none" stroke="#ff0000" cx="1803.9433" cy="-200" rx="54.458" ry="25.4118"/>
<text text-anchor="middle" x="1803.9433" y="-202.8" font-family="Times,serif" font-size="14.00" fill="#000000">0x14</text>
<text text-anchor="middle" x="1803.9433" y="-188.8" font-family="Times,serif" font-size="14.00" fill="#000000">Stereo R/L</text>
</g>
<!-- nid&#45;14&#45;ampin&#45;&gt;nid&#45;14 -->
<g id="edge14" class="edge">
<title>nid&#45;14&#45;ampin&#45;&gt;nid&#45;14</title>
<path fill="none" stroke="#0000ff" d="M1533.6522,-200C1581.085,-200 1680.0071,-200 1744.1156,-200"/>
<polygon fill="#0000ff" stroke="#0000ff" points="1744.4379,-201.7501 1749.4379,-200 1744.4379,-198.2501 1744.4379,-201.7501"/>
</g>
<!-- nid&#45;15&#45;ampin&#45;&gt;nid&#45;15 -->
<g id="edge18" class="edge">
<title>nid&#45;15&#45;ampin&#45;&gt;nid&#45;15</title>
<path fill="none" stroke="#0000ff" d="M841.5528,-126C909.142,-126 1084.2678,-126 1156.7943,-126"/>
<polygon fill="#0000ff" stroke="#0000ff" points="1156.836,-127.7501 1161.836,-126 1156.836,-124.2501 1156.836,-127.7501"/>
</g>
<!-- nid&#45;1d&#45;ampin -->
<g id="node23" class="node">
<title>nid&#45;1d&#45;ampin</title>
<polygon fill="none" stroke="#0000ff" points="841.3052,-376 800.8052,-394 800.8052,-358 841.3052,-376"/>
</g>
<!-- nid&#45;1d&#45;ampin&#45;&gt;nid&#45;1d&#45;out -->
<g id="edge25" class="edge">
<title>nid&#45;1d&#45;ampin&#45;&gt;nid&#45;1d&#45;out</title>
<path fill="none" stroke="#0000ff" d="M841.5528,-376C897.0564,-376 1025.0779,-376 1109.2493,-376"/>
<polygon fill="#0000ff" stroke="#0000ff" points="1109.4776,-377.7501 1114.4775,-376 1109.4775,-374.2501 1109.4776,-377.7501"/>
</g>
</g>
</svg>
